<?xml version="1.0" encoding="UTF-8"?>
<svg width="224px" height="36px" viewBox="0 0 224 36" version="1.1" xmlns="http://www.w3.org/2000/svg" xmlns:xlink="http://www.w3.org/1999/xlink">
    <!-- Generator: Sketch 53.2 (72643) - https://sketchapp.com -->
    <title>电池 copy 2</title>
    <desc>Created with Sketch.</desc>
    <g id="蒲公英充电" stroke="none" stroke-width="1" fill="none" fill-rule="evenodd">
        <g id="充电" transform="translate(-228.000000, -518.000000)">
            <g id="电池-copy-2" transform="translate(228.000000, 518.000000)">
                <polygon id="路径-2" fill="#979797" points="0 22.7434488 2.66969549 35 15.5401575 35 14.9980905 22.7434488"></polygon>
                <polygon id="路径" fill="#C0C0C0" points="15.7718489 3.00217052e-05 4.05155323e-13 22.7434488 14.9980905 22.7434488 29 3.00217052e-05"></polygon>
                <polygon id="路径-5" fill="#979797" points="15.3993463 22.7434488 15.9183723 35 30.1991867 35.0020346 30.1991867 22.7434488"></polygon>
                <polygon id="路径-4" fill="#C0C0C0" points="29.3235492 3.00217047e-05 15.3993463 22.7434488 30.1991867 22.7434488 41.8814501 3.00217047e-05"></polygon>
                <polygon id="路径-5-copy" fill="#979797" points="30.7305661 22.7434488 30.7305661 35.0020346 47.0553673 35 46.5524952 22.7434488"></polygon>
                <polygon id="路径-4-copy" fill="#C0C0C0" points="42.2312382 3.00217048e-05 30.7305661 22.7434488 46.5524952 22.7434488 56.0879933 3.00217048e-05"></polygon>
                <polygon id="路径-5-copy-2" fill="#979797" points="46.9667338 22.7434488 47.5338362 35 63.8615903 35 63.8615903 22.7434488"></polygon>
                <polygon id="路径-4-copy-2" fill="#C0C0C0" points="56.5334254 3.00217048e-05 46.9667338 22.7434488 63.8615903 22.7434488 71.5724273 3.00217048e-05"></polygon>
                <polygon id="路径-5-copy-3" fill="#979797" points="64.2521939 22.7434488 64.301552 35 80.5269722 35 80.5269722 22.7434488"></polygon>
                <polygon id="路径-4-copy-3" fill="#C0C0C0" points="72.0103246 3.00584182e-14 64.2521939 22.7434488 80.5269722 22.7434488 86.1498578 3.00217056e-05"></polygon>
                <polygon id="路径-5-copy-4" fill="#979797" points="80.9780899 22.7454834 80.9780899 35.0020346 100 35.0020346 100 22.7454834"></polygon>
                <polygon id="路径-4-copy-4" fill="#C0C0C0" points="86.6279561 3.00217056e-05 80.9780899 22.7454834 100 22.7434488 100.974094 3.00217061e-05"></polygon>
                <polygon id="路径-5-copy-5" fill="#979797" points="100.480951 22.7454834 100.480951 35.0020346 119.480951 35.0020346 119.407849 22.7454834"></polygon>
                <polygon id="路径-4-copy-5" fill="#C0C0C0" points="101.461396 3.0021706e-05 100.480951 22.7434488 119.407849 22.7454834 119.062392 -9.09494702e-13"></polygon>
                <polygon id="路径-5-copy-6" fill="#979797" points="119.98304 22.7434488 119.98304 35 135 35 135 22.7434488"></polygon>
                <polygon id="路径-4-copy-6" fill="#C0C0C0" points="119.61499 3.00217063e-05 119.98304 22.7454834 135 22.7434488 133.243899 3.00217063e-05"></polygon>
                <polygon id="路径-5-copy-7" fill="#979797" points="135.567746 22.7454834 135.567746 35 152.685935 35 152.166239 22.7454834"></polygon>
                <polygon id="路径-4-copy-7" fill="#C0C0C0" points="133.851967 -9.09494702e-13 135.567746 22.7434488 152.166239 22.7454834 147.530143 -9.09494702e-13"></polygon>
                <polygon id="路径-5-copy-8" fill="#979797" points="152.685935 22.7454834 153.232956 35 170 35.0020346 170 22.7434488"></polygon>
                <polygon id="路径-4-copy-8" fill="#C0C0C0" points="148.095276 -9.09494702e-13 152.685935 22.7434488 170 22.7434488 162.723983 -9.09494702e-13"></polygon>
                <polygon id="路径-5-copy-9" fill="#979797" points="170.583193 22.7454834 170.583193 35 187.972144 35.0040693 187.972144 22.7454834"></polygon>
                <polygon id="路径-4-copy-9" fill="#C0C0C0" points="163.251717 1.25960874e-13 170.583193 22.7454834 187.972144 22.7434488 177.776579 1.25960874e-13"></polygon>
                <polygon id="路径-5-copy-10" fill="#979797" points="188.518095 22.7132862 188.518095 35.0040693 205.629176 35 205.629176 22.7454834"></polygon>
                <polygon id="路径-4-copy-10" fill="#C0C0C0" points="178.410321 1.25888589e-13 188.518095 22.7434488 205.629176 22.7434488 194.634404 1.25888589e-13"></polygon>
                <polygon id="路径-5-copy-11" fill="#979797" points="206.296722 22.7434488 206.296722 35.0040693 223.143104 35.0040693 223.143104 22.7454834"></polygon>
                <polygon id="路径-4-copy-11" fill="#C0C0C0" points="195.258203 -6.82121026e-13 206.296722 22.7434488 223.143104 22.7434488 209.837755 2.87490512e-13"></polygon>
            </g>
        </g>
    </g>
</svg>